# xmcd
#
# Track frame offsets: 
#        150
#        21796
#        40831
#        70171
#        93410
#        111779
#        130325
#        159769
#        183160
#        221668
#        253469
#        275371
#
# Disc length: 3987 seconds
#
# Revision: 1
# Processed by: cddbd v1.5.2PL0 Copyright (c) Steve Scherf et al.
# Submitted via: ExactAudioCopy v1.0b4
#
DISCID=a50f910c
DTITLE=John McVey - Meet Me In Houston
DYEAR=2013
DGENRE=Blues
TTITLE0=Bayou Boogie!
TTITLE1=I'm Yours
TTITLE2=Thief
TTITLE3=Wish Me Well
TTITLE4=Blue Guitar
TTITLE5=Through The Tears
TTITLE6=Dealing From The Bottom Of The Deck
TTITLE7=I Don't Shutter
TTITLE8=Meet Me In Houston
TTITLE9=Same Thing
TTITLE10=Freddie King Goes Surfing
TTITLE11=Walking In The Footsteps
EXTD=
EXTT0=
EXTT1=
EXTT2=
EXTT3=
EXTT4=
EXTT5=
EXTT6=
EXTT7=
EXTT8=
EXTT9=
EXTT10=
EXTT11=
PLAYORDER=
